<svg width="98" height="40" viewBox="0 0 98 40" fill="none" xmlns="http://www.w3.org/2000/svg">
<path d="M53.784 7.946H55.856V11.922C55.324 12.3233 54.708 12.6313 54.008 12.846C53.308 13.0607 52.6033 13.168 51.894 13.168C50.8767 13.168 49.962 12.9533 49.15 12.524C48.338 12.0853 47.6987 11.4833 47.232 10.718C46.7747 9.94333 46.546 9.07067 46.546 8.1C46.546 7.12933 46.7747 6.26133 47.232 5.496C47.6987 4.72133 48.3427 4.11933 49.164 3.69C49.9853 3.25133 50.9093 3.032 51.936 3.032C52.7947 3.032 53.574 3.17667 54.274 3.466C54.974 3.75533 55.562 4.17533 56.038 4.726L54.582 6.07C53.882 5.33267 53.0373 4.964 52.048 4.964C51.4227 4.964 50.8673 5.09467 50.382 5.356C49.8967 5.61733 49.5187 5.986 49.248 6.462C48.9773 6.938 48.842 7.484 48.842 8.1C48.842 8.70667 48.9773 9.248 49.248 9.724C49.5187 10.2 49.892 10.5733 50.368 10.844C50.8533 11.1053 51.404 11.236 52.02 11.236C52.6733 11.236 53.2613 11.096 53.784 10.816V7.946ZM64.2068 13L62.3168 10.27H62.2048H60.2308V13H57.9628V3.2H62.2048C63.0728 3.2 63.8241 3.34467 64.4588 3.634C65.1028 3.92333 65.5974 4.334 65.9428 4.866C66.2881 5.398 66.4608 6.028 66.4608 6.756C66.4608 7.484 66.2834 8.114 65.9288 8.646C65.5834 9.16867 65.0888 9.57 64.4448 9.85L66.6428 13H64.2068ZM64.1648 6.756C64.1648 6.20533 63.9874 5.78533 63.6328 5.496C63.2781 5.19733 62.7601 5.048 62.0788 5.048H60.2308V8.464H62.0788C62.7601 8.464 63.2781 8.31467 63.6328 8.016C63.9874 7.71733 64.1648 7.29733 64.1648 6.756ZM75.8457 11.18V13H68.2577V3.2H75.6637V5.02H70.5117V7.148H75.0617V8.912H70.5117V11.18H75.8457ZM85.2383 11.18V13H77.6503V3.2H85.0563V5.02H79.9043V7.148H84.4543V8.912H79.9043V11.18H85.2383ZM96.0309 3.2V13H94.1689L89.2829 7.05V13H87.0429V3.2H88.9189L93.7909 9.15V3.2H96.0309ZM49.684 27.072C49.06 27.072 48.46 26.972 47.884 26.772C47.316 26.572 46.876 26.308 46.564 25.98L46.912 25.296C47.216 25.6 47.62 25.848 48.124 26.04C48.628 26.224 49.148 26.316 49.684 26.316C50.436 26.316 51 26.18 51.376 25.908C51.752 25.628 51.94 25.268 51.94 24.828C51.94 24.492 51.836 24.224 51.628 24.024C51.428 23.824 51.18 23.672 50.884 23.568C50.588 23.456 50.176 23.336 49.648 23.208C49.016 23.048 48.512 22.896 48.136 22.752C47.76 22.6 47.436 22.372 47.164 22.068C46.9 21.764 46.768 21.352 46.768 20.832C46.768 20.408 46.88 20.024 47.104 19.68C47.328 19.328 47.672 19.048 48.136 18.84C48.6 18.632 49.176 18.528 49.864 18.528C50.344 18.528 50.812 18.596 51.268 18.732C51.732 18.86 52.132 19.04 52.468 19.272L52.168 19.98C51.816 19.748 51.44 19.576 51.04 19.464C50.64 19.344 50.248 19.284 49.864 19.284C49.128 19.284 48.572 19.428 48.196 19.716C47.828 19.996 47.644 20.36 47.644 20.808C47.644 21.144 47.744 21.416 47.944 21.624C48.152 21.824 48.408 21.98 48.712 22.092C49.024 22.196 49.44 22.312 49.96 22.44C50.576 22.592 51.072 22.744 51.448 22.896C51.832 23.04 52.156 23.264 52.42 23.568C52.684 23.864 52.816 24.268 52.816 24.78C52.816 25.204 52.7 25.592 52.468 25.944C52.244 26.288 51.896 26.564 51.424 26.772C50.952 26.972 50.372 27.072 49.684 27.072ZM58.5188 27.072C57.6868 27.072 56.9348 26.888 56.2628 26.52C55.5988 26.152 55.0748 25.644 54.6908 24.996C54.3148 24.34 54.1268 23.608 54.1268 22.8C54.1268 21.992 54.3148 21.264 54.6908 20.616C55.0748 19.96 55.6028 19.448 56.2748 19.08C56.9468 18.712 57.6988 18.528 58.5308 18.528C59.1548 18.528 59.7308 18.632 60.2588 18.84C60.7868 19.048 61.2348 19.352 61.6028 19.752L61.0388 20.316C60.3828 19.652 59.5548 19.32 58.5548 19.32C57.8908 19.32 57.2868 19.472 56.7428 19.776C56.1988 20.08 55.7708 20.496 55.4588 21.024C55.1548 21.552 55.0028 22.144 55.0028 22.8C55.0028 23.456 55.1548 24.048 55.4588 24.576C55.7708 25.104 56.1988 25.52 56.7428 25.824C57.2868 26.128 57.8908 26.28 58.5548 26.28C59.5628 26.28 60.3908 25.944 61.0388 25.272L61.6028 25.836C61.2348 26.236 60.7828 26.544 60.2468 26.76C59.7188 26.968 59.1428 27.072 58.5188 27.072ZM69.3518 27L67.4318 24.3C67.2158 24.324 66.9918 24.336 66.7598 24.336H64.5038V27H63.6158V18.6H66.7598C67.8318 18.6 68.6718 18.856 69.2798 19.368C69.8878 19.88 70.1918 20.584 70.1918 21.48C70.1918 22.136 70.0238 22.692 69.6878 23.148C69.3598 23.596 68.8878 23.92 68.2718 24.12L70.3238 27H69.3518ZM66.7358 23.58C67.5678 23.58 68.2038 23.396 68.6438 23.028C69.0838 22.66 69.3038 22.144 69.3038 21.48C69.3038 20.8 69.0838 20.28 68.6438 19.92C68.2038 19.552 67.5678 19.368 66.7358 19.368H64.5038V23.58H66.7358ZM78.3477 26.232V27H72.4077V18.6H78.1677V19.368H73.2957V22.356H77.6397V23.112H73.2957V26.232H78.3477ZM86.495 26.232V27H80.555V18.6H86.315V19.368H81.443V22.356H85.787V23.112H81.443V26.232H86.495ZM95.7224 18.6V27H94.9904L89.5904 20.184V27H88.7024V18.6H89.4344L94.8464 25.416V18.6H95.7224Z" fill="#666666"/>
<path fill-rule="evenodd" clip-rule="evenodd" d="M20 36C11.1634 36 4 28.8366 4 20C4 11.1634 11.1634 4 20 4C28.8366 4 36 11.1634 36 20C36 28.8366 28.8366 36 20 36ZM32.0019 36C36.8586 32.3511 40 26.5424 40 20C40 8.95431 31.0457 0 20 0C8.95431 0 0 8.95431 0 20C0 31.0457 8.95431 40 20 40H98V36H32.0019ZM21.3589 7.07123C18.6286 6.78426 15.8775 7.36902 13.5 8.74168L16.75 14.3708C17.9388 13.6845 19.3143 13.3921 20.6794 13.5356L21.3589 7.07123ZM7 20C7 17.2547 7.86911 14.5798 9.48278 12.3588L14.7414 16.1794C13.9346 17.2899 13.5 18.6273 13.5 20L7 20ZM33 20C33 22.7453 32.1309 25.4202 30.5172 27.6412L25.2586 23.8206C26.0654 22.7101 26.5 21.3727 26.5 20H33ZM26.5 31.2583C24.1225 32.631 21.3714 33.2158 18.6411 32.9288L19.3206 26.4644C20.6857 26.6079 22.0612 26.3155 23.25 25.6292L26.5 31.2583ZM8.12391 25.2876C9.24054 27.7956 11.1225 29.8857 13.5 31.2583L16.75 25.6292C15.5612 24.9428 14.6203 23.8978 14.062 22.6438L8.12391 25.2876ZM26.5 8.74168C28.8775 10.1143 30.7595 12.2045 31.8761 14.7124L25.938 17.3562C25.3797 16.1022 24.4388 15.0572 23.25 14.3708L26.5 8.74168ZM17 20C17 18.3431 18.3431 17 20 17C21.6569 17 23 18.3431 23 20C23 21.6569 21.6569 23 20 23C18.3431 23 17 21.6569 17 20Z" fill="#43D000"/>
</svg>
