<svg width="40" height="33" viewBox="0 0 40 33" fill="none" xmlns="http://www.w3.org/2000/svg">
<path d="M14.2839 21.4287L24.4267 22.2859C24.4267 22.2859 28.141 26.5716 27.9981 27.5001C27.8553 28.4287 28.8553 32.8573 26.9981 33.7858C25.141 34.7144 19.2839 32.7858 18.3553 32.5716C17.4267 32.3573 14.4267 33.7858 12.4267 31.2144C10.4267 28.5001 11.9267 30.143 11.9267 28.7858C11.7839 27.4287 14.2839 21.4287 14.2839 21.4287Z" fill="#555659"/>
<path d="M26.6427 21.3571C26.357 21.4285 26.2142 21.5 26.2142 21.5714C26.2142 21.7857 26.4999 21.6428 27.4284 22.0714C26.1771 22.4342 24.868 22.5554 23.5713 22.4285C23.7329 22.112 23.8529 21.7759 23.9284 21.4285C24.0178 21.251 24.0666 21.0558 24.0713 20.8571C25.0713 20.7143 24.6427 20.5714 25.7142 20.4285C25.7142 20.3571 26.1427 20.3571 26.1427 20.2857C25.9999 20.2143 26.7856 20.0714 26.6427 20.0714C26.4944 19.9847 26.3513 19.8893 26.2142 19.7857C28.5484 18.5536 30.3333 16.4881 31.2142 14C28.9284 13.6428 27.9999 12.8571 27.6427 11.2143C26.8559 11.0429 26.0387 11.0707 25.2653 11.2952C24.4919 11.5198 23.7869 11.9339 23.2142 12.5C23.1427 12.1428 23.1427 11.8571 23.0713 11.5C21.9999 13.2143 21.7142 13.5 20.9999 13.6428C20.4042 12.4252 19.9948 11.125 19.7856 9.78568C19.4284 11.4285 19.4284 12.4285 18.7142 13.8571C18.0713 13.7143 17.4999 13.1428 16.4284 11.5C16.3508 11.8283 16.303 12.163 16.2856 12.5C15.7321 11.9791 15.0515 11.6126 14.312 11.4371C13.5725 11.2616 12.7998 11.2833 12.0713 11.5C11.7142 13.1428 11.7142 13.7857 9.42845 14.2143C10.357 16.7857 11.6427 18.5714 13.9999 19.8571C13.7999 19.9818 13.5835 20.0779 13.357 20.1428C13.2142 20.2143 13.1427 20.3571 12.9999 20.4285C12.9999 20.5 12.4284 20.1428 12.4284 20.2143C13.357 20.3571 14.4284 20.7143 15.357 20.9285C15.4463 21.1061 15.4951 21.3013 15.4999 21.5C15.5754 21.8473 15.6954 22.1834 15.857 22.5C14.5603 22.6268 13.2513 22.5056 11.9999 22.1428C13.2142 22 13.2142 21.8571 13.2142 21.6428C13.2142 21.5714 13.2142 21.3571 12.857 21.2857C8.78559 20.8571 6.99988 17.5714 6.14274 16.1428C6.99988 16.5 7.42845 16.7857 7.57131 16.5714C7.71416 16.3571 7.71416 16.2857 7.42845 16.0714C6.57131 15.2143 6.14274 12.4285 5.99988 11.2143C6.57131 11.4285 7.57131 11.9285 8.49988 11.6428C9.64273 11.2857 10.5713 10.2857 11.2142 8.64283C11.2856 8.64283 11.357 8.71426 11.4284 8.71426L11.6427 8.28568C11.6782 8.20712 11.6966 8.1219 11.6966 8.03568C11.6966 7.94947 11.6782 7.86425 11.6427 7.78568C11.1701 6.57685 10.9045 5.29704 10.857 3.99997C10.9242 3.49504 11.0196 2.99426 11.1427 2.49997C11.928 2.88479 12.6127 3.44728 13.1427 4.14283C13.4328 4.49371 13.7428 4.8276 14.0713 5.14283C14.5713 5.64283 15.4999 5.85711 15.6427 5.14283C15.7142 4.92854 15.4999 4.71426 15.357 4.49997C15.3381 4.49997 15.3199 4.49244 15.3065 4.47905C15.2931 4.46565 15.2856 4.44748 15.2856 4.42854C16.0713 4.14283 17.9284 3.49997 19.4999 3.85711H19.7142C19.7856 3.85711 19.857 3.92854 19.9284 3.85711C21.4461 3.5442 23.0181 3.61789 24.4999 4.0714L24.857 4.64283C24.7142 4.85711 24.357 5.0714 24.4284 5.21426C24.6427 5.49997 24.7142 5.64283 25.2142 5.0714C25.503 4.69686 25.813 4.33913 26.1427 3.99997C26.8932 3.14592 27.819 2.46375 28.857 1.99997C28.9284 2.42854 29.0713 3.78568 29.0713 4.14283C29.0582 5.37471 28.7907 6.59061 28.2856 7.71426C28.2142 7.85711 27.9284 8.0714 27.9999 8.28568C28.0713 8.49997 27.9999 8.28568 28.0713 8.42854C28.1427 8.42854 28.357 8.5714 28.4284 8.5714L28.357 8.71426C28.9999 10.3571 29.857 11.0714 30.9999 11.4285C31.942 11.6298 32.9247 11.5038 33.7856 11.0714C33.6427 12.2143 32.7142 15.2143 31.7856 16.1428C31.5713 16.3571 31.5713 16.5714 31.6427 16.6428C31.7142 16.7143 32.4284 16.3571 33.357 16C32.7142 18 29.9999 20.8571 26.6427 21.3571Z" fill="#C3C2CE"/>
<path d="M33.3567 13.3572C33.1659 13.7662 32.8371 14.0949 32.4282 14.2858V13.0001C31.1425 13.1429 28.9282 13.2858 28.6425 10.2858H28.571C28.0129 9.9249 27.3757 9.70434 26.7139 9.64294C26.4996 9.64294 26.2853 9.57152 26.1425 9.57152L26.6425 8.71437C26.6425 8.71437 23.7139 8.57151 22.1425 10.2858C21.9282 10.5001 22.1425 9.21437 22.1425 9.21437C21.3901 9.43646 20.687 9.80011 20.071 10.2858L19.7853 11.3572L19.4996 10.2858C18.8836 9.80011 18.1805 9.43646 17.4282 9.21437C17.4282 9.21437 17.6425 10.4287 17.4282 10.2858C15.7853 8.57151 12.9282 8.71437 12.9282 8.71437L13.4282 9.57152C13.2349 9.55992 13.0412 9.58414 12.8567 9.64294C12.2084 9.76078 11.582 9.9776 10.9996 10.2858H10.9282C10.6425 13.2858 8.42817 13.1429 7.14246 13.0001V14.2858C6.9301 14.2067 6.73726 14.0829 6.57703 13.9227C6.4168 13.7624 6.29295 13.5696 6.21388 13.3572L6.14246 13.7144L6.21388 14.1429C8.14246 18.3572 10.1425 19.0001 13.2139 19.7144L14.1425 19.7858L15.3567 20.4287L15.4996 21.2858C15.7853 22.3572 16.2139 22.6429 17.1425 23.3572L17.4996 23.6429L18.571 23.0715L19.7139 22.9287L20.8567 23.0715L21.7139 23.5001L22.1425 23.6429C22.9985 23.094 23.6314 22.2585 23.9282 21.2858L24.071 20.4287L25.2853 19.7858L26.2139 19.7144C29.2853 18.9287 31.571 17.8572 33.4282 13.5715L33.3567 13.3572Z" fill="white"/>
<path d="M19.1438 19.0716C19.4056 18.9602 19.689 18.9088 19.9733 18.9212C20.2576 18.9336 20.5355 19.0094 20.7866 19.1431C20.9035 19.1864 21.0071 19.2595 21.087 19.3553C21.1669 19.451 21.2203 19.566 21.242 19.6888C21.2636 19.8116 21.2528 19.9379 21.2105 20.0552C21.1682 20.1725 21.0959 20.2767 21.0009 20.3574L20.9295 20.4288C20.0723 21.5717 19.5009 21.2859 18.7152 20.2145C18.6604 20.142 18.6222 20.0584 18.6033 19.9695C18.5843 19.8807 18.5851 19.7887 18.6055 19.7002C18.6259 19.6117 18.6655 19.5287 18.7215 19.4571C18.7775 19.3855 18.8485 19.3271 18.9295 19.2859C18.9295 19.1431 19.0009 19.1431 19.1438 19.0716Z" fill="#1E1E40"/>
<path d="M33.5721 15.4284C33.3578 15.4998 33.1435 15.6427 32.9293 15.7141C33.6017 14.174 34.0121 12.5323 34.1435 10.8569L34.215 10.2141L33.715 10.5712C32.9424 11.033 32.0241 11.186 31.1435 10.9998C30.215 10.7141 29.3578 9.85694 28.7864 8.35694V8.28551C28.7817 8.24674 28.7857 8.20741 28.7981 8.17036C28.8104 8.1333 28.8308 8.09945 28.8578 8.07123C29.198 7.33089 29.4845 6.56701 29.715 5.78551C30.1692 4.45691 30.1183 3.00759 29.5721 1.71409C29.1435 0.785515 29.1435 0.785515 28.1435 0.999801C26.7335 1.39283 25.468 2.18689 24.5007 3.28552C24.4472 3.34812 24.3818 3.39936 24.3081 3.43617C24.2345 3.47298 24.1543 3.49462 24.0721 3.4998C22.7331 2.97382 21.2753 2.82558 19.8578 3.07123H19.715C18.2975 2.82558 16.8397 2.97382 15.5007 3.4998C15.4185 3.49462 15.3383 3.47298 15.2646 3.43617C15.191 3.39936 15.1255 3.34812 15.0721 3.28552C14.085 2.21038 12.8267 1.42084 11.4293 0.999801C10.4293 0.714087 10.4293 0.785515 10.0007 1.71409C9.37366 3.00623 9.27127 4.49096 9.71497 5.85694C9.92925 6.64266 10.2864 7.28552 10.5721 8.14266C10.5674 8.18144 10.5714 8.22076 10.5838 8.25782C10.5961 8.29487 10.6165 8.32872 10.6435 8.35694V8.42837C10.0721 9.85694 9.35782 10.7855 8.28639 11.0712C7.85066 11.1725 7.39923 11.1867 6.95797 11.1132C6.51672 11.0396 6.09431 10.8797 5.71497 10.6427L5.21497 10.2855L5.42925 10.8569C5.56065 12.5323 5.97106 14.174 6.64354 15.7141C6.42925 15.6427 6.21497 15.4998 6.00068 15.4284L5.21497 15.0712L5.57211 15.8569C5.64354 16.0712 7.64354 20.2141 11.5007 21.4998C11.1435 21.5712 10.7864 21.5712 10.4293 21.6427L9.42925 21.7855L10.3578 22.2855C11.8827 22.7852 13.4689 23.0735 15.0721 23.1427C15.457 23.1348 15.84 23.0869 16.215 22.9998C16.3675 23.2248 16.5614 23.4187 16.7864 23.5712C16.9462 23.6781 17.1132 23.7735 17.2864 23.8569H17.5007L18.1435 23.4998C18.2594 23.555 18.3787 23.6027 18.5007 23.6427C18.8806 23.8211 19.2952 23.9135 19.715 23.9135C20.1347 23.9135 20.5493 23.8211 20.9293 23.6427L21.2864 23.4998L21.9293 23.8569H22.1435C22.3305 23.8027 22.5019 23.7047 22.6435 23.5712C22.8516 23.3992 23.0429 23.2078 23.215 22.9998C23.5899 23.0869 23.9729 23.1348 24.3578 23.1427C25.9601 23.0653 27.5452 22.7771 29.0721 22.2855L30.3578 21.8569L29.0007 21.7141C28.6435 21.6427 28.2864 21.6427 27.9293 21.5712C31.7864 20.2855 33.7864 16.0712 33.8578 15.9284L34.215 15.1427L33.5721 15.4284ZM22.0721 23.2141C21.0007 22.5712 20.3578 22.2141 19.7864 22.2141C19.215 22.2141 18.6435 22.4998 17.5007 23.2141C15.8578 22.2855 15.715 19.2855 16.5007 17.8569C16.6278 18.131 16.7236 18.4186 16.7864 18.7141C16.9939 18.1304 17.2323 17.5581 17.5007 16.9998C18.0007 16.0712 18.1435 15.8569 18.1435 15.8569C18.715 14.9998 20.7864 14.9998 21.2864 15.8569C21.5535 16.2057 21.7699 16.5904 21.9293 16.9998C22.2227 17.5466 22.4619 18.1207 22.6435 18.7141C22.715 18.4284 22.8578 18.1427 22.9293 17.8569C23.7864 19.3569 23.6435 22.3569 22.0721 23.2141ZM15.4293 16.2855C14.5007 16.0712 14.0721 15.3569 13.5721 14.9284C14.715 15.0712 16.5007 15.4998 16.8578 15.8569C16.6899 16.0631 16.464 16.2142 16.2094 16.2906C15.9547 16.367 15.6829 16.3652 15.4293 16.2855ZM22.715 15.8569C23.0721 15.4998 24.8578 15.0712 26.0007 14.9284C25.5309 15.5559 24.8841 16.0285 24.1435 16.2855C23.8895 16.3595 23.6194 16.3584 23.3659 16.2824C23.1124 16.2064 22.8863 16.0586 22.715 15.8569ZM26.6435 21.3569C26.3578 21.4284 25.715 21.4998 25.7864 21.4998C25.8578 21.6427 26.215 21.6427 27.5007 22.0712C26.2493 22.434 24.9403 22.5552 23.6435 22.4284C23.8051 22.1118 23.9252 21.7757 24.0007 21.4284C24.09 21.2508 24.1388 21.0556 24.1435 20.8569C25.1435 20.7141 26.1435 20.4998 27.1435 20.3569C27.0111 20.2798 26.8907 20.1835 26.7864 20.0712C26.638 19.9845 26.4949 19.8891 26.3578 19.7855C28.692 18.5534 30.477 16.4879 31.3578 13.9998C29.0721 13.6427 28.1435 12.8569 27.7864 11.2141C26.9995 11.0427 26.1823 11.0705 25.409 11.2951C24.6356 11.5196 23.9306 11.9337 23.3578 12.4998C23.2864 12.1427 23.2864 11.8569 23.215 11.4998C22.1435 13.2141 21.8578 13.4998 21.1435 13.6427C20.514 12.1379 20.105 10.5501 19.9293 8.92837C19.5721 10.5712 19.4293 12.1427 18.715 13.6427C18.0721 13.4998 17.7864 13.2141 16.6435 11.4998C16.5659 11.8281 16.5181 12.1628 16.5007 12.4998C15.9348 11.9236 15.2302 11.5027 14.4546 11.2775C13.679 11.0523 12.8586 11.0305 12.0721 11.2141C11.715 12.8569 10.7864 13.6427 8.50068 13.9998C9.39897 16.4777 11.1791 18.5376 13.5007 19.7855C13.3755 19.9049 13.2304 20.0015 13.0721 20.0712C12.9293 20.1427 12.8578 20.1427 12.715 20.2141C13.6435 20.3569 14.5007 20.8569 15.4293 21.0712C15.5007 21.2141 15.7864 21.2855 15.7864 21.4998C15.8619 21.8471 15.9819 22.1832 16.1435 22.4998C14.8468 22.6266 13.5378 22.5054 12.2864 22.1427C13.5007 21.9998 13.5007 21.8569 13.5007 21.6427C13.5007 21.5712 13.5007 21.3569 13.1435 21.2855C9.78639 20.8569 7.64354 17.9284 6.78639 16.4284C7.64354 16.7855 8.07211 17.0712 8.21497 16.9284C8.35782 16.7855 7.92925 16.4998 7.71497 16.2141C7.00068 15.2141 6.50068 12.6427 6.35782 11.4284C7.14722 11.7636 8.02289 11.8387 8.85782 11.6427C10.0007 11.2855 10.9293 10.2855 11.5721 8.64266C11.6435 8.64266 11.715 8.71409 11.7864 8.71409L12.0007 8.28551C12.0362 8.20695 12.0545 8.12173 12.0545 8.03551C12.0545 7.9493 12.0362 7.86408 12.0007 7.78552C11.5281 6.57668 11.2624 5.29687 11.215 3.9998C11.2317 3.61562 11.2795 3.23343 11.3578 2.85694C12.1635 3.2084 12.8737 3.74714 13.4293 4.42837C13.7181 4.80291 14.0281 5.16064 14.3578 5.4998C14.4745 5.62167 14.6205 5.71156 14.7818 5.76087C14.9431 5.81018 15.1144 5.81725 15.2793 5.78141C15.4441 5.74558 15.597 5.66803 15.7234 5.55619C15.8497 5.44435 15.9451 5.30196 16.0007 5.14266C16.0721 4.92837 15.8578 4.71409 15.715 4.4998C15.696 4.4998 15.6779 4.49228 15.6645 4.47888C15.6511 4.46548 15.6435 4.44732 15.6435 4.42837C16.4293 4.14266 18.2864 3.4998 19.8578 3.85694H20.215C21.6454 3.6284 23.1114 3.82718 24.4293 4.42837H24.0721C23.9293 4.64266 23.715 4.92837 23.7864 5.07123C23.8403 5.23192 23.9349 5.37588 24.0611 5.48899C24.1873 5.6021 24.3408 5.6805 24.5064 5.7165C24.672 5.75251 24.8441 5.74488 25.0059 5.69437C25.1677 5.64386 25.3135 5.5522 25.4293 5.42837C25.7181 5.05383 26.0281 4.69611 26.3578 4.35694C26.9073 3.66948 27.6192 3.12947 28.4293 2.78552C28.5076 3.162 28.5553 3.5442 28.5721 3.92837C28.559 5.22937 28.2921 6.51531 27.7864 7.71409C27.7509 7.79265 27.7325 7.87787 27.7325 7.96409C27.7325 8.0503 27.7509 8.13552 27.7864 8.21409L28.0007 8.64266C28.0721 8.64266 28.1435 8.57123 28.215 8.57123C28.8578 10.2141 29.7864 11.2141 30.9293 11.5712C31.7603 11.8126 32.6514 11.7362 33.4293 11.3569C33.2192 12.9653 32.7614 14.5315 32.0721 15.9998C31.8578 16.3569 31.5007 16.7141 31.5721 16.7855C31.6435 16.8569 32.0721 16.7141 32.8578 16.3569C32.0721 17.7855 30.0007 20.8569 26.6435 21.3569Z" fill="#1E1E40"/>
<path d="M19.8561 19.786C20.2112 19.786 20.499 19.6901 20.499 19.5717C20.499 19.4534 20.2112 19.3574 19.8561 19.3574C19.5011 19.3574 19.2133 19.4534 19.2133 19.5717C19.2133 19.6901 19.5011 19.786 19.8561 19.786Z" fill="white"/>
<path d="M14.8559 20.6425L16.8559 23.0711C17.5671 23.9724 18.1224 24.9864 18.4987 26.0711C19.1416 28.1425 19.5702 27.4997 19.9273 30.4997L19.8559 33.9997L15.4273 33.714C15.4273 33.714 14.8559 33.4283 11.713 26.4283C11.4987 25.9283 10.713 21.1425 10.713 21.1425L13.8559 20.714H14.8559V20.6425Z" fill="#4A4797"/>
<path d="M14.9279 20.3575C14.8565 20.6432 14.8565 20.8575 14.785 21.1432L16.5707 23.3575L16.9993 24.0003C17.5068 24.6921 17.8932 25.465 18.1422 26.286C18.3565 27.0003 18.7136 27.7146 18.9993 28.5717C19.1422 28.9289 19.6422 29.786 19.785 30.286C19.9279 30.0717 19.9279 29.4289 20.0708 29.2146C19.9993 29.0003 19.6422 28.6432 19.5707 28.4289C19.247 27.7061 18.9609 26.967 18.7136 26.2146C18.4399 25.3238 18.0303 24.4805 17.4993 23.7146C17.3401 23.5117 17.1968 23.2968 17.0707 23.0717L14.9279 20.5003V20.3575Z" fill="#1E1E40"/>
<path d="M39.071 29.8569C39.1424 27.3569 38.3567 26.9998 36.4995 25.4284C34.7853 23.9998 31.1424 23.2141 31.1424 23.2141C31.1424 22.7855 31.4281 20.6426 31.4995 20.2855C31.9995 18.4998 31.7853 18.3569 31.7853 18.3569C30.0776 18.4017 28.3787 18.6171 26.7138 18.9998C25.1767 19.2523 23.6267 19.4192 22.071 19.4998L22.4995 21.7141H20.7138L20.7853 26.1426L19.7853 31.5712C19.7853 31.5712 19.4995 35.4998 18.571 33.9284C17.7138 32.4998 17.7138 32.7141 17.071 31.5712C15.4281 28.9998 16.071 30.2141 13.4995 26.2141C13.071 25.5712 15.3567 24.6426 15.2138 23.9284L14.7853 22.4998L14.9995 20.7141L9.14241 19.7141L9.28526 20.3569C9.37125 20.7707 9.49069 21.1768 9.64241 21.5712C9.85669 22.1426 10.1424 22.7141 10.4281 23.3569L10.6424 23.7855C10.6424 23.7855 5.21384 23.7141 3.21384 26.7855C2.5746 27.6321 2.06874 28.5715 1.71384 29.5712C1.35224 30.7253 1.2546 31.9458 1.42812 33.1426L2.14241 33.8569L23.7138 34.2141L38.8567 33.4998C38.8567 33.5712 38.9995 31.6426 39.071 29.8569Z" fill="#2E2C55"/>
<path d="M19.4983 34.8571L0.998327 33.9286C0.982168 32.3782 1.05371 30.8281 1.21261 29.2857C1.55597 28.3306 2.09069 27.4556 2.78404 26.7143C5.21261 24 8.78404 23.5 10.0698 23.4286C9.76511 22.8531 9.50251 22.2563 9.28404 21.6429C9.14118 21.2143 9.06976 20.8571 8.9269 20.4286L8.71261 19.2857L15.284 20.4286L14.9983 22.5L15.3555 23.9286C15.4983 24.5 14.9269 24.9286 14.4269 25.3571C14.2126 25.5714 13.7126 25.9286 13.7126 26.0714C13.9983 26.6429 15.284 28.4286 16.3555 30L17.284 31.3571C17.7491 32.0489 18.1782 32.7641 18.5698 33.5C18.9269 34.1429 19.3555 33.2857 19.3555 33.2857L19.284 31.5L20.284 26.0714L20.3555 21.3571H22.1412L21.7126 19.1429H22.1412C23.6492 19.0587 25.1515 18.8918 26.6412 18.6429C28.3028 18.2425 30.0036 18.0269 31.7126 18H31.784L31.8555 18.0714C32.0698 18.2143 32.2126 18.5714 31.7126 20.3571C31.6412 20.7143 31.4269 22.2857 31.3555 22.9286C32.2126 23.1429 35.0698 23.7857 36.5698 25.1429C38.4983 26.8571 39.4269 27.6429 39.2126 30.2143C38.9269 34.8571 39.1412 34.0714 39.1412 34.0714L19.4983 34.8571ZM21.1412 22.0714L21.0698 26.1429L20.2126 33.5L28.8555 33.4286L37.4269 33.3571L38.7126 33.2143V30.0714C38.784 27.5714 37.9983 27.2143 36.2126 25.7143C34.5698 24.3571 31.0698 23.5714 31.0698 23.5714L30.8555 23.5V23.2143C30.8555 22.7143 31.1412 20.5714 31.2126 20.1429C31.3479 19.6756 31.4435 19.1977 31.4983 18.7143C29.91 18.7782 28.3315 18.9935 26.784 19.3571C25.3649 19.5968 23.9345 19.7637 22.4983 19.8571L22.9269 22.0714H21.1412ZM1.78404 33.6429L12.784 33.9286C12.7126 33.7857 19.5698 35.2143 16.784 31.7143L15.8555 30.3571C14.7126 28.6429 13.4983 27 13.2126 26.4286C12.9269 25.8571 13.4983 25.3571 14.0698 24.8571C14.3555 24.6429 14.8555 24.2143 14.784 24.0714L14.3555 22.5L14.4983 20.9286L9.4269 20.0714L9.49833 20.2857C9.56976 20.6429 9.71261 21.0714 9.78404 21.4286C9.98621 22.0255 10.2495 22.6 10.5698 23.1429L11.0698 24.0714H10.4983C9.99833 24.0714 6.35547 24.2143 3.9269 26.5C3.04004 27.3061 2.35497 28.3092 1.9269 29.4286C1.80929 29.7975 1.76085 30.1849 1.78404 30.5714C1.69746 31.5934 1.69746 32.6209 1.78404 33.6429Z" fill="#1E1E40"/>
<path d="M12.4276 25C12.3888 25.0047 12.3495 25.0007 12.3125 24.9884C12.2754 24.976 12.2416 24.9556 12.2133 24.9286C11.9668 24.6386 11.6604 24.4054 11.3151 24.2451C10.9699 24.0848 10.594 24.0012 10.2133 24C10.1208 23.9934 10.0338 23.9537 9.96818 23.8881C9.90258 23.8225 9.86283 23.7354 9.85619 23.6429C9.85304 23.5952 9.86011 23.5473 9.87694 23.5026C9.89377 23.4578 9.91997 23.4172 9.95379 23.3834C9.9876 23.3495 10.0283 23.3233 10.073 23.3065C10.1178 23.2897 10.1656 23.2826 10.2133 23.2858C11.1304 23.3176 12.0001 23.7013 12.6419 24.3572C12.7848 24.5 12.7848 24.7143 12.6419 24.7858C12.499 24.8572 12.499 25 12.4276 25ZM7.78476 34.0715C7.57048 34.0715 7.42762 33.9286 7.49905 33.7143C7.49905 33.7143 7.64191 31.0715 7.57048 30.2143C7.57048 30.0715 7.64191 29.8572 7.85619 29.8572C8.07048 29.8572 8.21334 29.9286 8.21334 30.1429C8.27191 31.3574 8.24804 32.5745 8.14191 33.7858C8.11152 33.8598 8.06279 33.9248 8.0003 33.9748C7.93782 34.0248 7.86365 34.0581 7.78476 34.0715ZM32.8562 34.0715C32.669 34.0631 32.4913 33.987 32.3562 33.8572C31.8562 33.4286 31.7133 32.2143 31.9276 30.5C31.9276 30.3572 32.1419 30.2143 32.2848 30.2143C32.4276 30.2143 32.5705 30.4286 32.5705 30.5715C32.3562 32.6429 32.6419 33.2143 32.7848 33.3572C32.9276 33.5 32.8562 33.4286 32.9276 33.4286C32.999 33.4286 33.2848 33.5 33.2848 33.6429C33.2848 33.7858 33.2133 34 32.999 34C32.9276 34.0715 32.9276 34.0715 32.8562 34.0715ZM24.0705 26.5715C24.0317 26.5761 23.9924 26.5722 23.9553 26.5598C23.9183 26.5475 23.8844 26.527 23.8562 26.5C23.7133 26.3572 23.7133 26.1429 23.8562 26.0715C27.499 22.7858 31.0705 22.9286 31.2133 22.9286C31.2555 22.9333 31.2964 22.9463 31.3336 22.9668C31.3708 22.9872 31.4036 23.0149 31.4302 23.048C31.4567 23.0812 31.4764 23.1192 31.4882 23.16C31.5001 23.2008 31.5037 23.2436 31.499 23.2858C31.4944 23.328 31.4814 23.3688 31.4609 23.406C31.4404 23.4432 31.4128 23.4761 31.3796 23.5026C31.3465 23.5291 31.3084 23.5489 31.2676 23.5607C31.2268 23.5725 31.1841 23.5762 31.1419 23.5715C28.553 23.6724 26.0898 24.7136 24.2133 26.5C24.2133 26.5715 24.1419 26.5715 24.0705 26.5715Z" fill="#1E1E40"/>
<path d="M23.6443 24.8569C23.5014 24.8569 23.3586 24.7855 23.3586 24.6426C23.3419 24.6006 23.3343 24.5555 23.3362 24.5103C23.3382 24.4651 23.3496 24.4209 23.3699 24.3804C23.3901 24.34 23.4186 24.3042 23.4536 24.2756C23.4886 24.2469 23.5292 24.2259 23.5728 24.214C25.9367 23.2877 28.4638 22.8503 31.0014 22.9283C31.0867 22.9378 31.1647 22.9807 31.2182 23.0477C31.2718 23.1147 31.2966 23.2002 31.2871 23.2855C31.2777 23.3707 31.2347 23.4487 31.1677 23.5023C31.1008 23.5559 31.0152 23.5807 30.93 23.5712C28.4952 23.5409 26.0751 23.9523 23.7871 24.7855C23.7501 24.8262 23.6991 24.8517 23.6443 24.8569Z" fill="#1E1E40"/>
</svg>
