<svg width="8" height="16" viewBox="0 0 8 16" fill="none" xmlns="http://www.w3.org/2000/svg">
<path d="M6.35573e-08 0C1.05058 -4.59221e-08 2.09086 0.206925 3.06147 0.608963C4.03207 1.011 4.91399 1.60028 5.65685 2.34315C6.39972 3.08601 6.989 3.96793 7.39104 4.93853C7.79308 5.90914 8 6.94942 8 8C8 9.05057 7.79307 10.0909 7.39104 11.0615C6.989 12.0321 6.39972 12.914 5.65686 13.6569C4.91399 14.3997 4.03207 14.989 3.06147 15.391C2.09086 15.7931 1.05058 16 0 16L4.13248e-07 8L6.35573e-08 0Z" fill="#5957DB"/>
</svg>
